<svg width="15" height="15" viewBox="0 0 15 15" fill="none" xmlns="http://www.w3.org/2000/svg">
<path d="M6.09755 0.842563C6.16278 0.863092 6.25633 0.893331 6.37414 0.933479C6.60969 1.01374 6.94296 1.13387 7.34154 1.29561C8.13674 1.61828 9.20179 2.11063 10.2717 2.78834C12.3882 4.12902 14.6667 6.29171 14.6667 9.4006C14.6667 10.7598 14.268 12.1053 13.3399 13.1233C12.3953 14.1593 10.9633 14.788 9.06669 14.788C9.02133 14.788 8.83933 14.7866 8.65852 14.6686C8.40631 14.5041 8.34562 14.2494 8.37264 14.0664C8.39301 13.9285 8.45804 13.8345 8.47701 13.8075C8.50431 13.7688 8.53049 13.7409 8.54407 13.7271C8.57179 13.6987 8.59636 13.6789 8.60518 13.6718C8.61694 13.6624 8.62681 13.655 8.63276 13.6508C8.65124 13.6373 8.6693 13.6256 8.67483 13.6221L8.6756 13.6215L8.72964 13.5868C8.77003 13.5608 8.82778 13.5228 8.89785 13.473C9.03911 13.3724 9.22748 13.2254 9.41452 13.0386C9.79805 12.6555 10.1167 12.1658 10.1167 11.6042C10.1167 10.5651 9.46639 9.5994 8.72138 8.84643C8.35752 8.47864 7.99177 8.18274 7.71674 7.97885C7.69966 7.96618 7.683 7.95395 7.66669 7.94204C7.65038 7.95395 7.63372 7.96618 7.61664 7.97885C7.34161 8.18274 6.97586 8.47864 6.612 8.84643C5.86702 9.5994 5.21669 10.5651 5.21669 11.6042C5.21669 12.1701 5.53452 12.66 5.91546 13.041C6.10153 13.2271 6.28902 13.3731 6.42958 13.4725C6.4993 13.5218 6.55663 13.559 6.59569 13.5837C6.612 13.5941 6.62474 13.602 6.63636 13.6092L6.64476 13.6144C6.64966 13.6174 6.66114 13.6245 6.67178 13.6315C6.67493 13.6336 6.69642 13.6475 6.72001 13.6658C6.7275 13.6716 6.74073 13.6821 6.75634 13.696C6.76747 13.7059 6.80198 13.7369 6.83768 13.7827C6.85637 13.8079 6.89739 13.8748 6.91783 13.9173C6.94345 13.9881 6.96606 14.1799 6.948 14.2978C6.88969 14.4418 6.68858 14.6594 6.56356 14.7279C6.47522 14.7591 6.32507 14.7858 6.26669 14.788C4.37 14.788 2.93803 14.1593 1.99349 13.1233C1.06536 12.1053 0.666687 10.7598 0.666687 9.4006C0.666687 7.77681 1.28519 6.75309 2.10369 5.97215C2.48424 5.60906 2.90469 5.30175 3.28174 5.02617L3.31165 5.0043C3.7089 4.71389 4.0566 4.45719 4.35413 4.16621C5.08243 3.45396 5.24781 2.8088 5.25907 2.36997C5.26488 2.14356 5.22969 1.96 5.19529 1.83771C5.17815 1.77678 5.16147 1.73198 5.15083 1.70584C5.14552 1.6928 5.14177 1.68454 5.14031 1.68138C5.02576 1.45349 5.06853 1.18476 5.25057 0.996072C5.47555 0.762895 5.79687 0.74793 6.09755 0.842563Z" fill="#3D3D3D"/>
</svg>
