<svg width="75" height="75" viewBox="0 0 75 75" fill="none" xmlns="http://www.w3.org/2000/svg">
<path d="M75 22.4623L67.5823 15.0446L68.9969 13.63C71.103 11.5239 71.103 8.10945 68.9969 6.0033C66.8907 3.89715 63.4761 3.89715 61.3701 6.0033L59.9556 7.41788L52.5382 0L44.8991 7.63941L38.2072 0.94723L30.5683 8.58632L44.6777 22.6961L22.6953 44.678L8.58585 30.5689L0.947071 38.2077L7.63893 44.8994L0 52.5383L7.4174 59.9557L6.00282 61.3706C3.89667 63.4768 3.89667 66.8913 6.00282 68.9973C8.10898 71.1033 11.5235 71.1035 13.6297 68.9973L15.0443 67.5829L22.4496 74.9879L30.0974 67.3577L36.7928 74.0534L44.4198 66.4267L30.3102 52.3168L52.3044 30.3225L66.414 44.4324L74.0529 36.7933L67.3611 30.1012L75 22.4623Z" fill="#3D3D3D"/>
</svg>
