<svg width="30" height="30" viewBox="0 0 30 30" fill="none" xmlns="http://www.w3.org/2000/svg">
<path d="M30 8.98493L27.0329 6.01784L27.5987 5.45201C28.4412 4.60954 28.4412 3.24378 27.5987 2.40132C26.7563 1.55886 25.3905 1.55886 24.5481 2.40132L23.9822 2.96715L21.0153 0L17.9596 3.05576L15.2829 0.378892L12.2273 3.43453L17.8711 9.07843L9.07811 17.8712L3.43434 12.2276L0.378828 15.2831L3.05557 17.9598L0 21.0153L2.96696 23.9823L2.40113 24.5482C1.55867 25.3907 1.55867 26.7565 2.40113 27.5989C3.24359 28.4413 4.60942 28.4414 5.45188 27.5989L6.01771 27.0332L8.97985 29.9952L12.039 26.9431L14.7171 29.6214L17.7679 26.5707L12.1241 20.9267L20.9218 12.129L26.5656 17.7729L29.6212 14.7173L26.9444 12.0405L30 8.98493Z" fill="white"/>
</svg>
