<svg width="30" height="31" viewBox="0 0 30 31" fill="none" xmlns="http://www.w3.org/2000/svg">
<path d="M23.5346 20.3855C15.3043 20.3855 10.0406 15.2282 10.0406 6.98277C10.0406 5.27891 10.4514 2.84483 10.9838 1.58216C11.1359 1.23223 11.1512 1.01926 11.1512 0.867118C11.1512 0.456375 10.8469 0 10.2688 0C10.0863 0 9.73634 0.0456311 9.40167 0.167335C3.77283 2.4189 0 8.47367 0 14.8479C0 23.7931 6.81544 30.1827 15.7303 30.1827C22.2719 30.1827 27.9615 26.212 29.848 21.2526C29.9698 20.9027 30 20.5376 30 20.4007C30 19.8378 29.5436 19.4575 29.1176 19.4575C28.9198 19.4575 28.7525 19.5031 28.4637 19.5944C27.2922 19.9747 25.4057 20.3855 23.5346 20.3855Z" fill="white"/>
</svg>
