<svg width="75" height="76" viewBox="0 0 75 76" fill="none" xmlns="http://www.w3.org/2000/svg">
<path d="M58.8364 50.9637C38.2607 50.9637 25.1014 38.0705 25.1014 17.4569C25.1014 13.1973 26.1284 7.11207 27.4596 3.95539C27.8398 3.08058 27.8779 2.54816 27.8779 2.1678C27.8779 1.14094 27.1172 0 25.672 0C25.2157 0 24.3409 0.114078 23.5042 0.418338C9.43208 6.04724 0 21.1842 0 37.1198C0 59.4829 17.0386 75.4566 39.3257 75.4566C55.6797 75.4566 69.9038 65.5301 74.62 53.1315C74.9244 52.2567 75 51.3439 75 51.0017C75 49.5945 73.8589 48.6437 72.7941 48.6437C72.2995 48.6437 71.8813 48.7576 71.1592 48.986C68.2305 49.9367 63.5144 50.9637 58.8364 50.9637Z" fill="#3D3D3D"/>
</svg>
