<svg width="40" height="39" viewBox="0 0 40 39" fill="none" xmlns="http://www.w3.org/2000/svg">
<path d="M39.0739 10.2756L35.8986 7.10033C35.8986 7.10033 16.6262 26.3286 12.1279 30.8269C11.5987 31.3561 10.8049 31.3561 10.2756 30.8269C9.74642 30.2977 9.74642 29.5039 10.2756 28.9746L34.0463 5.24807L30.871 2.02867C29.6362 0.793826 27.6075 0.793826 26.3286 2.02867L16.2293 12.1279L4.14553 0L0.92613 3.1753C-0.30871 4.41014 -0.30871 6.43881 0.92613 7.71775L10.7607 17.5524L4.80706 23.5061C1.27894 27.0342 1.27894 32.7233 4.80706 36.2514C8.33517 39.7795 14.0243 39.7795 17.5524 36.2514L39.0739 14.774C40.3087 13.5832 40.3087 11.5546 39.0739 10.2756Z" fill="white"/>
</svg>
