<svg width="75" height="71" viewBox="0 0 75 71" fill="none" xmlns="http://www.w3.org/2000/svg">
<path d="M17.7166 61.32L33.0484 43.5L38.933 51.0964L25.0227 67.5641C20.738 73.0085 12.8093 67.2711 17.7166 61.32ZM32.5363 26.2789C33.7449 22.3359 33.1894 18.9667 28.6483 13.9617L17.5518 0.61294C15.9771 -1.23647 12.2661 1.47966 13.8164 3.71971L22.6911 14.6514C24.3696 16.69 21.2507 19.3878 19.5172 17.2882L10.3373 5.98417C8.62829 4.02489 5.09426 6.61284 6.88264 8.85289C9.47059 11.9658 13.4746 17.0501 16.0626 20.163C17.857 21.988 15.1287 24.6919 13.3586 22.4152L4.24585 11.1845C2.90915 9.73182 0.724036 10.6352 0.144188 12.332C-0.478386 14.1448 1.05363 15.4693 2.09736 16.8121L12.2661 29.9472C15.4217 33.6033 18.9496 35.7701 23.0512 34.5432C23.6799 34.354 24.449 33.9695 25.273 33.4629L52.593 68.7299C54.064 70.6281 56.9022 70.8295 58.7455 69.2975L59.1666 68.9496C61.2419 67.2223 61.5776 64.0667 59.8014 62.028L30.87 28.7875C31.7124 27.8475 32.3288 26.9564 32.5363 26.2789ZM38 36.9794L44.7681 28.5128C38.9818 14.1692 60.424 -4.9475 70.8185 3.84178C83.447 14.5293 64.6783 40.2868 51.4882 33.9207L43.6753 43.5L38 36.9794Z" fill="#3D3D3D"/>
</svg>
