<svg width="30" height="29" viewBox="0 0 30 29" fill="none" xmlns="http://www.w3.org/2000/svg">
<path d="M15 3.95639V28.0013C14.745 28.0013 14.475 27.9563 14.265 27.8363L14.205 27.8063C11.325 26.2313 6.3 24.5813 3.045 24.1463L2.61 24.0863C1.17 23.9063 0 22.5563 0 21.1163V2.99639C0 1.21139 1.455 -0.138613 3.24 0.0113868C6.39 0.266387 11.16 1.85639 13.83 3.52139L14.205 3.74639C14.43 3.88139 14.715 3.95639 15 3.95639Z" fill="white"/>
<path d="M30 3.01153V21.1165C30 22.5565 28.83 23.9065 27.39 24.0865L26.895 24.1465C23.625 24.5815 18.585 26.2465 15.705 27.8365C15.51 27.9565 15.27 28.0015 15 28.0015V3.95653C15.285 3.95653 15.57 3.88153 15.795 3.74653L16.05 3.58153C18.72 1.90153 23.505 0.296529 26.655 0.0265285H26.745C28.53 -0.123472 30 1.21153 30 3.01153Z" fill="white"/>
<path d="M8.625 9.86647H5.25C4.635 9.86647 4.125 9.35647 4.125 8.74147C4.125 8.12647 4.635 7.61647 5.25 7.61647H8.625C9.24 7.61647 9.75 8.12647 9.75 8.74147C9.75 9.35647 9.24 9.86647 8.625 9.86647Z" fill="white"/>
<path d="M9.75 14.3665H5.25C4.635 14.3665 4.125 13.8565 4.125 13.2415C4.125 12.6265 4.635 12.1165 5.25 12.1165H9.75C10.365 12.1165 10.875 12.6265 10.875 13.2415C10.875 13.8565 10.365 14.3665 9.75 14.3665Z" fill="white"/>
</svg>
