<svg width="75" height="71" viewBox="0 0 75 71" fill="none" xmlns="http://www.w3.org/2000/svg">
<path fill-rule="evenodd" clip-rule="evenodd" d="M37.5 9.89132L37.5 9.89097C36.7875 9.89097 36.075 9.70347 35.5125 9.36597L34.575 8.80347C27.9 4.64097 15.975 0.665969 8.1 0.0284685C3.6375 -0.346532 0 3.02847 0 7.49097V52.7908C0 56.3908 2.925 59.7658 6.525 60.2158L7.6125 60.3658C15.75 61.4533 28.3125 65.5783 35.5125 69.5158L35.6625 69.5908C36.1875 69.8908 36.8625 70.0033 37.5 70.0033L37.5 70.0037C38.175 70.0037 38.775 69.8912 39.2625 69.5912C46.4625 65.6162 59.0625 61.4537 67.2375 60.3662L68.475 60.2162C72.075 59.7662 75 56.3912 75 52.7912V7.52882C75 3.02882 71.325 -0.308685 66.8625 0.0663151H66.6375C58.7625 0.741315 46.8 4.75382 40.125 8.95382L39.4875 9.36631C38.925 9.70381 38.2125 9.89132 37.5 9.89132Z" fill="#3D3D3D"/>
</svg>
