<svg width="14" height="14" viewBox="0 0 14 14" fill="none" xmlns="http://www.w3.org/2000/svg">
<path d="M12.8333 0H1.1667C0.522293 0 0 0.522266 0 1.16673V12.8331C0 13.4775 0.522293 13.9998 1.1667 13.9998H12.8333C13.4777 13.9998 14 13.4775 14 12.8331V1.16673C14 0.522266 13.4777 0 12.8333 0ZM9.96324 5.24653H8.17789L8.48985 3.38278L8.20023 3.32399L7.91038 3.26473L7.43343 5.24653H4.03676L3.267 3.00702C4.35712 2.35006 5.63437 1.97157 7.00022 1.97157C8.36585 1.97157 9.64286 2.35006 10.733 3.00702L9.96324 5.24653Z" fill="#3D3D3D"/>
</svg>
